<svg xmlns="http://www.w3.org/2000/svg" viewBox="84 40 440 440">
  <title>Napoleon on a rearing horse</title>
  <rect x="84" y="40" width="440" height="440" fill="#1c3f7a"/>
  <g fill="#e9ebef">
    <!-- Horse, one outline: head, near foreleg, belly, hind legs, croup, back, crest -->
    <path d="M205 118 C 196 104, 180 100, 168 110 L 138 136 C 128 146, 132 160, 146 160 L 168 158
      C 176 176, 184 200, 192 228 C 196 244, 200 252, 204 258
      C 186 262, 168 262, 150 258 C 140 270, 138 286, 146 300 L 136 306 L 154 314
      C 158 300, 160 286, 164 276 C 182 282, 200 286, 214 288
      C 236 330, 266 366, 302 374
      C 306 396, 312 424, 318 448 L 312 470 L 342 470 L 340 450 C 336 424, 338 404, 346 390
      C 352 402, 358 430, 362 452 L 358 470 L 388 470 L 386 452 C 382 420, 382 392, 384 364
      C 400 336, 404 306, 388 290 C 356 262, 306 222, 262 202
      C 250 190, 238 176, 228 160 C 222 146, 214 128, 205 118 Z"/>
    <!-- Far foreleg, raised higher -->
    <path d="M196 240 C 176 238, 156 232, 138 224 C 126 234, 122 250, 128 264 L 118 272 L 136 278
      C 140 264, 142 252, 146 244 C 166 252, 188 258, 206 262 Z"/>
    <!-- Ears -->
    <path d="M194 110 L 198 86 L 208 112 Z"/>
    <!-- Mane -->
    <path d="M226 150 C 240 158, 252 172, 262 188 C 256 186, 250 188, 246 192 C 242 180, 234 170, 224 164 Z"/>
    <!-- Tail -->
    <path d="M392 298 C 430 306, 448 352, 462 398 C 466 416, 462 436, 452 452 C 446 428, 432 410, 414 400
      C 424 420, 424 436, 418 450 C 404 420, 392 396, 380 372 Z"/>
    <g transform="translate(282 232) scale(1.25) translate(-282 -232)">
    <!-- Rider: cape billowing behind -->
    <path d="M288 166 C 320 160, 356 170, 392 196 C 374 198, 362 204, 354 214 C 372 222, 382 234, 386 250
      C 356 236, 320 232, 292 224 Z"/>
    <!-- Torso -->
    <path d="M262 222 C 258 200, 258 180, 262 162 L 290 166 C 294 186, 294 206, 290 226 Z"/>
    <!-- Leg along the horse's side, boot in the stirrup -->
    <path d="M266 220 L 298 226 C 304 246, 306 266, 302 290 L 308 300 L 286 302
      C 286 284, 284 262, 278 244 L 264 240 Z"/>
    <!-- Arm raised, pointing onward -->
    <path d="M266 172 C 254 150, 240 128, 222 104 L 232 96 C 250 118, 268 140, 284 164 Z"/>
    <!-- Head and bicorne hat, worn sideways -->
    <circle cx="276" cy="148" r="13"/>
    <path d="M240 140 Q 276 104 314 140 Q 277 128 240 140 Z"/>
    </g>
  </g>
</svg>
